<svg xmlns="http://www.w3.org/2000/svg" width="24" height="24"><g><title>background</title><rect id="canvas_background" width="582" height="402" x="-1" y="-1" fill="none"/></g><g><title>Layer 1</title><path id="svg_3" fill="#fff" d="m9,4c2.8,0 5,2.2 5,5s-2.2,5 -5,5s-5,-2.2 -5,-5s2.2,-5 5,-5m0,-2c-3.9,0 -7,3.1 -7,7c0,3.9 3.1,7 7,7s7,-3.1 7,-7c0,-3.9 -3.1,-7 -7,-7l0,0z"/><polygon id="svg_5" fill="#fff" points="22 20.3 20.3 22 14 15.7 14 14 15.7 14"/><rect id="svg_6" width="1.2" height="3.6" x="13.8" y="12.6" fill="#fff" transform="matrix(0.7071,-0.7071,0.7071,0.7071,-5.9741,14.4227)"/></g></svg>